<mxfile host="app.diagrams.net" agent="Mozilla/5.0 (Macintosh; Intel Mac OS X 10_15_7) AppleWebKit/537.36 (KHTML, like Gecko) Chrome/134.0.0.0 Safari/537.36" version="26.2.5">
  <diagram name="Page-1" id="1W6xUuscxjdU9nkEljJR">
    <mxGraphModel dx="730" dy="468" grid="1" gridSize="10" guides="1" tooltips="1" connect="1" arrows="1" fold="1" page="1" pageScale="1" pageWidth="827" pageHeight="1169" math="0" shadow="0">
      <root>
        <mxCell id="0" />
        <mxCell id="1" parent="0" />
        <mxCell id="xSvJtQ2f6eM6oFL4Y1jt-1" value="" style="ellipse;fillColor=strokeColor;" vertex="1" parent="1">
          <mxGeometry x="784" y="20" width="14" height="14" as="geometry" />
        </mxCell>
        <mxCell id="xSvJtQ2f6eM6oFL4Y1jt-2" value="Register" style="rounded=1;arcSize=20;strokeWidth=2" vertex="1" parent="1">
          <mxGeometry x="754" y="107" width="74" height="40" as="geometry" />
        </mxCell>
        <mxCell id="xSvJtQ2f6eM6oFL4Y1jt-3" value="ProfileCreated" style="rounded=1;arcSize=20;strokeWidth=2" vertex="1" parent="1">
          <mxGeometry x="731" y="237" width="120" height="40" as="geometry" />
        </mxCell>
        <mxCell id="xSvJtQ2f6eM6oFL4Y1jt-4" value="Login" style="rounded=1;arcSize=20;strokeWidth=2" vertex="1" parent="1">
          <mxGeometry x="764" y="367" width="54" height="40" as="geometry" />
        </mxCell>
        <mxCell id="xSvJtQ2f6eM6oFL4Y1jt-5" value="Dashboard" style="rounded=1;arcSize=20;strokeWidth=2" vertex="1" parent="1">
          <mxGeometry x="628" y="497" width="90" height="40" as="geometry" />
        </mxCell>
        <mxCell id="xSvJtQ2f6eM6oFL4Y1jt-6" value="JobSearch" style="rounded=1;arcSize=20;strokeWidth=2" vertex="1" parent="1">
          <mxGeometry x="70" y="609" width="89" height="40" as="geometry" />
        </mxCell>
        <mxCell id="xSvJtQ2f6eM6oFL4Y1jt-7" value="JobListDisplayed" style="rounded=1;arcSize=20;strokeWidth=2" vertex="1" parent="1">
          <mxGeometry x="91" y="722" width="135" height="40" as="geometry" />
        </mxCell>
        <mxCell id="xSvJtQ2f6eM6oFL4Y1jt-8" value="JobApplication" style="rounded=1;arcSize=20;strokeWidth=2" vertex="1" parent="1">
          <mxGeometry x="98" y="834" width="122" height="40" as="geometry" />
        </mxCell>
        <mxCell id="xSvJtQ2f6eM6oFL4Y1jt-9" value="ApplicationSubmitted" style="rounded=1;arcSize=20;strokeWidth=2" vertex="1" parent="1">
          <mxGeometry x="20" y="1095" width="171" height="40" as="geometry" />
        </mxCell>
        <mxCell id="xSvJtQ2f6eM6oFL4Y1jt-10" value="InterviewScheduled" style="rounded=1;arcSize=20;strokeWidth=2" vertex="1" parent="1">
          <mxGeometry x="80" y="1225" width="157" height="40" as="geometry" />
        </mxCell>
        <mxCell id="xSvJtQ2f6eM6oFL4Y1jt-11" value="InterviewAttended" style="rounded=1;arcSize=20;strokeWidth=2" vertex="1" parent="1">
          <mxGeometry x="84" y="1355" width="150" height="40" as="geometry" />
        </mxCell>
        <mxCell id="xSvJtQ2f6eM6oFL4Y1jt-12" value="JobOffered" style="rounded=1;arcSize=20;strokeWidth=2" vertex="1" parent="1">
          <mxGeometry x="111" y="1467" width="96" height="40" as="geometry" />
        </mxCell>
        <mxCell id="xSvJtQ2f6eM6oFL4Y1jt-13" value="OfferAccepted" style="rounded=1;arcSize=20;strokeWidth=2" vertex="1" parent="1">
          <mxGeometry x="485" y="1597" width="120" height="40" as="geometry" />
        </mxCell>
        <mxCell id="xSvJtQ2f6eM6oFL4Y1jt-14" value="OfferRejected" style="rounded=1;arcSize=20;strokeWidth=2" vertex="1" parent="1">
          <mxGeometry x="1074" y="1597" width="117" height="40" as="geometry" />
        </mxCell>
        <mxCell id="xSvJtQ2f6eM6oFL4Y1jt-15" value="JobPosting" style="rounded=1;arcSize=20;strokeWidth=2" vertex="1" parent="1">
          <mxGeometry x="261" y="609" width="92" height="40" as="geometry" />
        </mxCell>
        <mxCell id="xSvJtQ2f6eM6oFL4Y1jt-16" value="ApplicationReview" style="rounded=1;arcSize=20;strokeWidth=2" vertex="1" parent="1">
          <mxGeometry x="453" y="964" width="148" height="40" as="geometry" />
        </mxCell>
        <mxCell id="xSvJtQ2f6eM6oFL4Y1jt-17" value="CandidateSelected" style="rounded=1;arcSize=20;strokeWidth=2" vertex="1" parent="1">
          <mxGeometry x="451" y="1095" width="150" height="40" as="geometry" />
        </mxCell>
        <mxCell id="xSvJtQ2f6eM6oFL4Y1jt-18" value="ProfileUpdated" style="rounded=1;arcSize=20;strokeWidth=2" vertex="1" parent="1">
          <mxGeometry x="462" y="609" width="123" height="40" as="geometry" />
        </mxCell>
        <mxCell id="xSvJtQ2f6eM6oFL4Y1jt-19" value="Logout" style="rounded=1;arcSize=20;strokeWidth=2" vertex="1" parent="1">
          <mxGeometry x="842" y="609" width="64" height="40" as="geometry" />
        </mxCell>
        <mxCell id="xSvJtQ2f6eM6oFL4Y1jt-20" value="User accesses portal" style="curved=0;startArrow=none;;exitX=0.47;exitY=1;entryX=0.49;entryY=-0.01;rounded=0;" edge="1" parent="1" source="xSvJtQ2f6eM6oFL4Y1jt-1" target="xSvJtQ2f6eM6oFL4Y1jt-2">
          <mxGeometry relative="1" as="geometry">
            <Array as="points" />
          </mxGeometry>
        </mxCell>
        <mxCell id="xSvJtQ2f6eM6oFL4Y1jt-21" value="User submits registration details" style="curved=0;startArrow=none;;exitX=0.49;exitY=0.99;entryX=0.5;entryY=-0.01;rounded=0;" edge="1" parent="1" source="xSvJtQ2f6eM6oFL4Y1jt-2" target="xSvJtQ2f6eM6oFL4Y1jt-3">
          <mxGeometry relative="1" as="geometry">
            <Array as="points" />
          </mxGeometry>
        </mxCell>
        <mxCell id="xSvJtQ2f6eM6oFL4Y1jt-22" value="Account created successfully" style="curved=0;startArrow=none;;exitX=0.5;exitY=0.99;entryX=0.49;entryY=-0.01;rounded=0;" edge="1" parent="1" source="xSvJtQ2f6eM6oFL4Y1jt-3" target="xSvJtQ2f6eM6oFL4Y1jt-4">
          <mxGeometry relative="1" as="geometry">
            <Array as="points" />
          </mxGeometry>
        </mxCell>
        <mxCell id="xSvJtQ2f6eM6oFL4Y1jt-23" value="User enters correct credentials" style="curved=0;startArrow=none;;exitX=-0.01;exitY=0.87;entryX=0.5;entryY=-0.01;rounded=0;" edge="1" parent="1" source="xSvJtQ2f6eM6oFL4Y1jt-4" target="xSvJtQ2f6eM6oFL4Y1jt-5">
          <mxGeometry relative="1" as="geometry">
            <Array as="points">
              <mxPoint x="673" y="452" />
            </Array>
          </mxGeometry>
        </mxCell>
        <mxCell id="xSvJtQ2f6eM6oFL4Y1jt-24" value="User initiates job search" style="curved=0;startArrow=none;;exitX=-0.01;exitY=0.61;entryX=0.5;entryY=0.01;rounded=0;" edge="1" parent="1" source="xSvJtQ2f6eM6oFL4Y1jt-5" target="xSvJtQ2f6eM6oFL4Y1jt-6">
          <mxGeometry x="0.5942" y="-5" relative="1" as="geometry">
            <Array as="points">
              <mxPoint x="115" y="573" />
            </Array>
            <mxPoint as="offset" />
          </mxGeometry>
        </mxCell>
        <mxCell id="xSvJtQ2f6eM6oFL4Y1jt-25" value="System fetches job listings" style="curved=0;startArrow=none;;exitX=0.5;exitY=1.01;entryX=0.39;entryY=-0.01;rounded=0;" edge="1" parent="1" source="xSvJtQ2f6eM6oFL4Y1jt-6" target="xSvJtQ2f6eM6oFL4Y1jt-7">
          <mxGeometry relative="1" as="geometry">
            <Array as="points">
              <mxPoint x="115" y="686" />
            </Array>
          </mxGeometry>
        </mxCell>
        <mxCell id="xSvJtQ2f6eM6oFL4Y1jt-26" value="User applies for a job" style="curved=0;startArrow=none;;exitX=0.5;exitY=0.99;entryX=0.5;entryY=0.01;rounded=0;" edge="1" parent="1" source="xSvJtQ2f6eM6oFL4Y1jt-7" target="xSvJtQ2f6eM6oFL4Y1jt-8">
          <mxGeometry relative="1" as="geometry">
            <Array as="points" />
          </mxGeometry>
        </mxCell>
        <mxCell id="xSvJtQ2f6eM6oFL4Y1jt-27" value="Application submitted successfully" style="curved=0;startArrow=none;;exitX=0.36;exitY=1.01;entryX=0.5;entryY=-0.01;rounded=0;" edge="1" parent="1" source="xSvJtQ2f6eM6oFL4Y1jt-8" target="xSvJtQ2f6eM6oFL4Y1jt-9">
          <mxGeometry relative="1" as="geometry">
            <Array as="points">
              <mxPoint x="106" y="919" />
            </Array>
          </mxGeometry>
        </mxCell>
        <mxCell id="xSvJtQ2f6eM6oFL4Y1jt-28" value="Employer shortlists candidate" style="curved=0;startArrow=none;;exitX=0.5;exitY=0.99;entryX=0.4;entryY=-0.01;rounded=0;" edge="1" parent="1" source="xSvJtQ2f6eM6oFL4Y1jt-9" target="xSvJtQ2f6eM6oFL4Y1jt-10">
          <mxGeometry relative="1" as="geometry">
            <Array as="points">
              <mxPoint x="106" y="1180" />
            </Array>
          </mxGeometry>
        </mxCell>
        <mxCell id="xSvJtQ2f6eM6oFL4Y1jt-29" value="Candidate attends interview" style="curved=0;startArrow=none;;exitX=0.5;exitY=0.99;entryX=0.5;entryY=-0.01;rounded=0;" edge="1" parent="1" source="xSvJtQ2f6eM6oFL4Y1jt-10" target="xSvJtQ2f6eM6oFL4Y1jt-11">
          <mxGeometry relative="1" as="geometry">
            <Array as="points" />
          </mxGeometry>
        </mxCell>
        <mxCell id="xSvJtQ2f6eM6oFL4Y1jt-30" value="Employer extends job offer" style="curved=0;startArrow=none;;exitX=0.5;exitY=0.99;entryX=0.5;entryY=0.01;rounded=0;" edge="1" parent="1" source="xSvJtQ2f6eM6oFL4Y1jt-11" target="xSvJtQ2f6eM6oFL4Y1jt-12">
          <mxGeometry relative="1" as="geometry">
            <Array as="points" />
          </mxGeometry>
        </mxCell>
        <mxCell id="xSvJtQ2f6eM6oFL4Y1jt-31" value="Candidate accepts the offer" style="curved=0;startArrow=none;;exitX=0.5;exitY=1.01;entryX=0;entryY=0.26;rounded=0;" edge="1" parent="1" source="xSvJtQ2f6eM6oFL4Y1jt-12" target="xSvJtQ2f6eM6oFL4Y1jt-13">
          <mxGeometry relative="1" as="geometry">
            <Array as="points">
              <mxPoint x="159" y="1552" />
            </Array>
          </mxGeometry>
        </mxCell>
        <mxCell id="xSvJtQ2f6eM6oFL4Y1jt-32" value="Candidate rejects the offer" style="curved=0;startArrow=none;;exitX=1;exitY=0.59;entryX=0.34;entryY=0.01;rounded=0;" edge="1" parent="1" source="xSvJtQ2f6eM6oFL4Y1jt-12" target="xSvJtQ2f6eM6oFL4Y1jt-14">
          <mxGeometry relative="1" as="geometry">
            <Array as="points">
              <mxPoint x="1072" y="1552" />
            </Array>
          </mxGeometry>
        </mxCell>
        <mxCell id="xSvJtQ2f6eM6oFL4Y1jt-33" value="Job contract signed, user returns to dashboard" style="curved=0;startArrow=none;;exitX=1;exitY=0.27;entryX=1;entryY=0.72;rounded=0;" edge="1" parent="1" source="xSvJtQ2f6eM6oFL4Y1jt-13" target="xSvJtQ2f6eM6oFL4Y1jt-5">
          <mxGeometry relative="1" as="geometry">
            <Array as="points">
              <mxPoint x="952" y="1552" />
              <mxPoint x="952" y="573" />
            </Array>
          </mxGeometry>
        </mxCell>
        <mxCell id="xSvJtQ2f6eM6oFL4Y1jt-34" value="Candidate continues job search" style="curved=0;startArrow=none;;exitX=0.66;exitY=0.01;entryX=1;entryY=0.62;rounded=0;" edge="1" parent="1" source="xSvJtQ2f6eM6oFL4Y1jt-14" target="xSvJtQ2f6eM6oFL4Y1jt-5">
          <mxGeometry relative="1" as="geometry">
            <Array as="points">
              <mxPoint x="1192" y="1552" />
              <mxPoint x="1192" y="573" />
            </Array>
          </mxGeometry>
        </mxCell>
        <mxCell id="xSvJtQ2f6eM6oFL4Y1jt-35" value="Employer posts a job" style="curved=0;startArrow=none;;exitX=-0.01;exitY=0.67;entryX=0.51;entryY=0.01;rounded=0;" edge="1" parent="1" source="xSvJtQ2f6eM6oFL4Y1jt-5" target="xSvJtQ2f6eM6oFL4Y1jt-15">
          <mxGeometry x="0.6802" y="10" relative="1" as="geometry">
            <Array as="points">
              <mxPoint x="307" y="573" />
            </Array>
            <mxPoint as="offset" />
          </mxGeometry>
        </mxCell>
        <mxCell id="xSvJtQ2f6eM6oFL4Y1jt-36" value="Job listing published" style="curved=0;startArrow=none;;exitX=0.51;exitY=1.01;entryX=0.89;entryY=-0.01;rounded=0;" edge="1" parent="1" source="xSvJtQ2f6eM6oFL4Y1jt-15" target="xSvJtQ2f6eM6oFL4Y1jt-7">
          <mxGeometry relative="1" as="geometry">
            <Array as="points">
              <mxPoint x="307" y="686" />
            </Array>
          </mxGeometry>
        </mxCell>
        <mxCell id="xSvJtQ2f6eM6oFL4Y1jt-37" value="Employer reviews applications" style="curved=0;startArrow=none;;exitX=1;exitY=0.78;entryX=0.5;entryY=0.01;rounded=0;" edge="1" parent="1" source="xSvJtQ2f6eM6oFL4Y1jt-8" target="xSvJtQ2f6eM6oFL4Y1jt-16">
          <mxGeometry relative="1" as="geometry">
            <Array as="points">
              <mxPoint x="526" y="919" />
            </Array>
          </mxGeometry>
        </mxCell>
        <mxCell id="xSvJtQ2f6eM6oFL4Y1jt-38" value="Employer shortlists candidate" style="curved=0;startArrow=none;;exitX=0.5;exitY=1.01;entryX=0.5;entryY=-0.01;rounded=0;" edge="1" parent="1" source="xSvJtQ2f6eM6oFL4Y1jt-16" target="xSvJtQ2f6eM6oFL4Y1jt-17">
          <mxGeometry relative="1" as="geometry">
            <Array as="points" />
          </mxGeometry>
        </mxCell>
        <mxCell id="xSvJtQ2f6eM6oFL4Y1jt-39" value="Interview invitation sent" style="curved=0;startArrow=none;;exitX=0.5;exitY=0.99;entryX=1;entryY=0.15;rounded=0;" edge="1" parent="1" source="xSvJtQ2f6eM6oFL4Y1jt-17" target="xSvJtQ2f6eM6oFL4Y1jt-10">
          <mxGeometry relative="1" as="geometry">
            <Array as="points">
              <mxPoint x="526" y="1180" />
            </Array>
          </mxGeometry>
        </mxCell>
        <mxCell id="xSvJtQ2f6eM6oFL4Y1jt-40" value="User updates profile" style="curved=0;startArrow=none;;exitX=-0.01;exitY=0.82;entryX=0.37;entryY=0.01;rounded=0;" edge="1" parent="1" source="xSvJtQ2f6eM6oFL4Y1jt-5" target="xSvJtQ2f6eM6oFL4Y1jt-18">
          <mxGeometry x="0.6059" y="-4" relative="1" as="geometry">
            <Array as="points">
              <mxPoint x="479" y="573" />
            </Array>
            <mxPoint x="1" as="offset" />
          </mxGeometry>
        </mxCell>
        <mxCell id="xSvJtQ2f6eM6oFL4Y1jt-41" value="Changes saved successfully" style="curved=0;startArrow=none;;exitX=0.93;exitY=0.01;entryX=0.5;entryY=0.99;rounded=0;" edge="1" parent="1" source="xSvJtQ2f6eM6oFL4Y1jt-18" target="xSvJtQ2f6eM6oFL4Y1jt-5">
          <mxGeometry relative="1" as="geometry">
            <Array as="points">
              <mxPoint x="673" y="573" />
            </Array>
          </mxGeometry>
        </mxCell>
        <mxCell id="xSvJtQ2f6eM6oFL4Y1jt-42" value="User logs out" style="curved=0;startArrow=none;;exitX=1;exitY=0.88;entryX=0.31;entryY=0.01;rounded=0;" edge="1" parent="1" source="xSvJtQ2f6eM6oFL4Y1jt-5" target="xSvJtQ2f6eM6oFL4Y1jt-19">
          <mxGeometry relative="1" as="geometry">
            <Array as="points">
              <mxPoint x="840" y="573" />
            </Array>
          </mxGeometry>
        </mxCell>
        <mxCell id="xSvJtQ2f6eM6oFL4Y1jt-43" value="User attempts to re-login" style="curved=0;startArrow=none;;exitX=0.69;exitY=0.01;entryX=0.99;entryY=0.87;rounded=0;" edge="1" parent="1" source="xSvJtQ2f6eM6oFL4Y1jt-19" target="xSvJtQ2f6eM6oFL4Y1jt-4">
          <mxGeometry relative="1" as="geometry">
            <Array as="points">
              <mxPoint x="908" y="573" />
              <mxPoint x="908" y="452" />
            </Array>
          </mxGeometry>
        </mxCell>
      </root>
    </mxGraphModel>
  </diagram>
</mxfile>
